<?xml version="1.0" encoding="utf-8"?>
<!-- Generator: Adobe Illustrator 27.5.0, SVG Export Plug-In . SVG Version: 6.00 Build 0)  -->
<svg version="1.1" xmlns="http://www.w3.org/2000/svg" xmlns:xlink="http://www.w3.org/1999/xlink" x="0px" y="0px"
	 viewBox="0 0 500 500" style="enable-background:new 0 0 500 500;" xml:space="preserve">
<g id="BACKGROUND">
	<linearGradient id="SVGID_1_" gradientUnits="userSpaceOnUse" x1="3.140929e-06" y1="3.140929e-06" x2="500" y2="500">
		<stop  offset="0" style="stop-color:#373084"/>
		<stop  offset="1" style="stop-color:#1B2743"/>
	</linearGradient>
	<rect x="0" y="0" style="fill:url(#SVGID_1_);" width="500" height="500"/>
</g>
<g id="OBJECTS">
	<g>
		<g>
			<polygon style="fill:#1759C1;" points="251.032,143.264 129.555,143.264 129.555,149.555 129.555,143.264 121.927,151.944 
				154.409,273.751 285.828,273.751 			"/>
			<rect x="154.409" y="273.751" style="fill:#1759C1;" width="131.419" height="177.09"/>
			
				<linearGradient id="SVGID_00000176018100150642749170000003160843144006982576_" gradientUnits="userSpaceOnUse" x1="152.9335" y1="285.1689" x2="307.188" y2="439.4234">
				<stop  offset="0" style="stop-color:#009AE8"/>
				<stop  offset="1" style="stop-color:#2467E9"/>
			</linearGradient>
			
				<rect x="164.351" y="273.751" style="fill:url(#SVGID_00000176018100150642749170000003160843144006982576_);" width="131.419" height="177.09"/>
			
				<linearGradient id="SVGID_00000072976913797418767360000004063888940113250728_" gradientUnits="userSpaceOnUse" x1="138.4867" y1="134.3319" x2="286.8382" y2="282.6834">
				<stop  offset="0" style="stop-color:#009AE8"/>
				<stop  offset="1" style="stop-color:#2467E9"/>
			</linearGradient>
			<polygon style="fill:url(#SVGID_00000072976913797418767360000004063888940113250728_);" points="260.974,143.264 
				129.555,143.264 164.351,273.751 295.77,273.751 			"/>
			
				<linearGradient id="SVGID_00000112600971984566763690000010584384128437726909_" gradientUnits="userSpaceOnUse" x1="150.1429" y1="145.9881" x2="275.182" y2="271.0273">
				<stop  offset="0" style="stop-color:#373084"/>
				<stop  offset="1" style="stop-color:#1B2743"/>
			</linearGradient>
			<polygon style="fill:url(#SVGID_00000112600971984566763690000010584384128437726909_);" points="253.382,153.517 
				142.614,153.517 171.943,263.499 282.711,263.499 			"/>
			
				<polyline style="fill:none;stroke:#E5D9EA;stroke-width:0.75;stroke-linecap:round;stroke-linejoin:round;stroke-miterlimit:10;" points="
				257.808,252.68 268.93,252.68 265.985,241.637 			"/>
			
				<polyline style="fill:none;stroke:#E5D9EA;stroke-width:0.75;stroke-linecap:round;stroke-linejoin:round;stroke-miterlimit:10;" points="
				167.517,164.335 156.395,164.335 159.34,175.378 			"/>
			<rect x="119.613" y="448.356" style="fill:#1759C1;" width="173.905" height="15.845"/>
			
				<linearGradient id="SVGID_00000152976858817552914070000001464641169939930498_" gradientUnits="userSpaceOnUse" x1="169.0696" y1="408.8405" x2="263.9447" y2="503.7155">
				<stop  offset="0" style="stop-color:#009AE8"/>
				<stop  offset="1" style="stop-color:#2467E9"/>
			</linearGradient>
			
				<rect x="129.555" y="448.356" style="fill:url(#SVGID_00000152976858817552914070000001464641169939930498_);" width="173.905" height="15.845"/>
			
				<line style="fill:none;stroke:#E5D9EA;stroke-width:0.75;stroke-linecap:round;stroke-linejoin:round;stroke-miterlimit:10;" x1="176.507" y1="349.688" x2="176.507" y2="407.734"/>
			
				<line style="fill:none;stroke:#E5D9EA;stroke-width:0.75;stroke-linecap:round;stroke-linejoin:round;stroke-miterlimit:10;" x1="176.507" y1="318.664" x2="176.507" y2="337.507"/>
			
				<polyline style="fill:none;stroke:#E5D9EA;stroke-width:0.75;stroke-linecap:round;stroke-linejoin:round;stroke-miterlimit:10;" points="
				213.983,442.724 283.188,442.724 283.188,425.424 			"/>
			<rect x="203.963" y="300.082" style="fill:#1B2743;" width="52.195" height="6.99"/>
		</g>
		<g>
			<path style="fill:#E5D9EA;" d="M167.992,243.244h-57.908c-6.436,0-11.653-5.217-11.653-11.653v0
				c0-6.436,5.217-11.653,11.653-11.653h57.908c6.436,0,11.653,5.217,11.653,11.653v0
				C179.645,238.027,174.428,243.244,167.992,243.244z"/>
			<g>
				<g>
					
						<linearGradient id="SVGID_00000062176455945693743440000007080577310699826090_" gradientUnits="userSpaceOnUse" x1="166.5" y1="231.591" x2="114.5859" y2="231.591">
						<stop  offset="0" style="stop-color:#1B2743"/>
						<stop  offset="1" style="stop-color:#373084"/>
					</linearGradient>
					<circle style="fill:url(#SVGID_00000062176455945693743440000007080577310699826090_);" cx="116.956" cy="231.591" r="4.494"/>
					
						<linearGradient id="SVGID_00000013170832959696048230000015788414276517755056_" gradientUnits="userSpaceOnUse" x1="166.5" y1="231.591" x2="114.5859" y2="231.591">
						<stop  offset="0" style="stop-color:#1B2743"/>
						<stop  offset="1" style="stop-color:#373084"/>
					</linearGradient>
					<circle style="fill:url(#SVGID_00000013170832959696048230000015788414276517755056_);" cx="139.038" cy="231.591" r="4.494"/>
					
						<linearGradient id="SVGID_00000123427453161257401970000008261899653132140208_" gradientUnits="userSpaceOnUse" x1="166.5" y1="231.591" x2="114.5859" y2="231.591">
						<stop  offset="0" style="stop-color:#1B2743"/>
						<stop  offset="1" style="stop-color:#373084"/>
					</linearGradient>
					<circle style="fill:url(#SVGID_00000123427453161257401970000008261899653132140208_);" cx="161.12" cy="231.591" r="4.494"/>
				</g>
			</g>
		</g>
		<g>
			
				<linearGradient id="SVGID_00000034795193845424673050000005130938620075600296_" gradientUnits="userSpaceOnUse" x1="282.9865" y1="34.4908" x2="387.0687" y2="138.573">
				<stop  offset="0" style="stop-color:#FF65D9"/>
				<stop  offset="1" style="stop-color:#DA1CA6"/>
			</linearGradient>
			<polygon style="fill:url(#SVGID_00000034795193845424673050000005130938620075600296_);" points="417.569,43.955 273.522,43.955 
				273.522,108.073 293.877,108.073 273.522,150.145 325.461,108.073 417.569,108.073 			"/>
			<g>
				
					<line style="fill:none;stroke:#E5D9EA;stroke-width:5;stroke-miterlimit:10;" x1="384.677" y1="61.14" x2="403.312" y2="61.14"/>
				
					<line style="fill:none;stroke:#E5D9EA;stroke-width:5;stroke-miterlimit:10;" x1="287.779" y1="61.14" x2="373.034" y2="61.14"/>
				
					<line style="fill:none;stroke:#E5D9EA;stroke-width:5;stroke-miterlimit:10;" x1="328.77" y1="76.014" x2="403.312" y2="76.014"/>
				
					<line style="fill:none;stroke:#E5D9EA;stroke-width:5;stroke-miterlimit:10;" x1="287.779" y1="76.014" x2="318.986" y2="76.014"/>
				
					<line style="fill:none;stroke:#E5D9EA;stroke-width:5;stroke-miterlimit:10;" x1="287.779" y1="90.887" x2="350.193" y2="90.887"/>
				
					<line style="fill:none;stroke:#E5D9EA;stroke-width:5;stroke-miterlimit:10;" x1="368.784" y1="90.887" x2="403.312" y2="90.887"/>
			</g>
		</g>
		<g>
			
				<linearGradient id="SVGID_00000018224474550521066870000013455035720306828445_" gradientUnits="userSpaceOnUse" x1="338.3633" y1="179.3336" x2="309.4883" y2="151.2086">
				<stop  offset="0" style="stop-color:#2467E9"/>
				<stop  offset="1" style="stop-color:#009AE8"/>
			</linearGradient>
			<circle style="fill:url(#SVGID_00000018224474550521066870000013455035720306828445_);" cx="319.87" cy="161.321" r="10.709"/>
			<g>
				<g>
					<rect x="311.243" y="427.475" style="fill:#E5D9EA;" width="17.69" height="31.677"/>
					
						<linearGradient id="SVGID_00000116225250671094207630000006865539505217735313_" gradientUnits="userSpaceOnUse" x1="283.5233" y1="456.7398" x2="330.7596" y2="456.7398">
						<stop  offset="0" style="stop-color:#FF65D9"/>
						<stop  offset="1" style="stop-color:#DA1CA6"/>
					</linearGradient>
					<path style="fill:url(#SVGID_00000116225250671094207630000006865539505217735313_);" d="M311.243,451.199
						c0,0-27.719,1.982-27.719,13.001h45.409c0,0,4.111-5.048,0-14.921C328.933,449.279,325.641,454.079,311.243,451.199z"/>
				</g>
				<g>
					
						<rect x="347.722" y="409.585" transform="matrix(0.7953 -0.6062 0.6062 0.7953 -184.9074 303.2316)" style="fill:#E5D9EA;" width="17.69" height="31.677"/>
					
						<linearGradient id="SVGID_00000084513120749130436250000014664563591308482455_" gradientUnits="userSpaceOnUse" x1="338.8282" y1="444.5033" x2="376.2632" y2="444.5033">
						<stop  offset="0" style="stop-color:#FF65D9"/>
						<stop  offset="1" style="stop-color:#DA1CA6"/>
					</linearGradient>
					<path style="fill:url(#SVGID_00000084513120749130436250000014664563591308482455_);" d="M354.312,437.057
						c0,0-20.844,18.38-14.164,27.144l36.114-27.527c0,0,0.209-6.507-9.045-11.867C367.217,424.806,367.509,430.618,354.312,437.057
						z"/>
				</g>
				
					<linearGradient id="SVGID_00000183232880112802496770000010967129145307861658_" gradientUnits="userSpaceOnUse" x1="303.8297" y1="251.1927" x2="334.2047" y2="425.8489">
					<stop  offset="0" style="stop-color:#FF65D9"/>
					<stop  offset="1" style="stop-color:#DA1CA6"/>
				</linearGradient>
				<path style="fill:url(#SVGID_00000183232880112802496770000010967129145307861658_);" d="M304.798,435.018v-33.46
					c0,0-30.169-28.523-28.523-50.464s32.363-101.659,32.363-101.659h40.59c0,0,6.582,97.271-15.359,185.582H304.798z"/>
				
					<linearGradient id="SVGID_00000025416578843233552510000007176629261153868442_" gradientUnits="userSpaceOnUse" x1="319.1639" y1="248.5258" x2="349.5389" y2="423.1821">
					<stop  offset="0" style="stop-color:#FF65D9"/>
					<stop  offset="1" style="stop-color:#DA1CA6"/>
				</linearGradient>
				<polyline style="fill:url(#SVGID_00000025416578843233552510000007176629261153868442_);" points="334.418,422.95 345,432.995 
					363.191,414.965 328.933,356.579 				"/>
				<path style="fill:#E5D9EA;" d="M291.627,212.171l-2.003,4.204c0,0-28.477-41.813-32.04-43.922
					c-4.144-2.454,2.953,8.344,0.802,6.722c-2.633-1.985-9.099-10.285-11.059-11.213c-3.583-1.696,6.337,12.731,6.337,12.731
					s-4.553-1.771-2.192,2.698c0,0-3.626-1.602-1.939,2.698c0,0-3.541-0.843-0.084,4.469s29.089,42.691,38.514,49.969
					c5.79,4.471,17.799-2.404,23.756-22.278C315.643,205.161,291.627,212.171,291.627,212.171z"/>
			</g>
			
				<line style="fill:none;stroke:#E5D9EA;stroke-width:0.75;stroke-linecap:round;stroke-linejoin:round;stroke-miterlimit:10;" x1="305.073" y1="396.733" x2="310.603" y2="286.5"/>
			
				<line style="fill:none;stroke:#E5D9EA;stroke-width:0.75;stroke-linecap:round;stroke-linejoin:round;stroke-miterlimit:10;" x1="342.943" y1="385.1" x2="337.91" y2="415.637"/>
			<path style="fill:none;stroke:#E5D9EA;stroke-width:0.75;stroke-linecap:round;stroke-linejoin:round;stroke-miterlimit:10;" d="
				M318.319,258c1.125,16.875,15.34,20.623,21.107,20.624"/>
			
				<line style="fill:none;stroke:#E5D9EA;stroke-width:0.75;stroke-linecap:round;stroke-linejoin:round;stroke-miterlimit:10;" x1="307.838" y1="339.507" x2="303.694" y2="330.882"/>
			
				<linearGradient id="SVGID_00000021094481441255923760000016009634863206193076_" gradientUnits="userSpaceOnUse" x1="300.286" y1="189.1992" x2="331.036" y2="248.8242">
				<stop  offset="0" style="stop-color:#009AE8"/>
				<stop  offset="1" style="stop-color:#2467E9"/>
			</linearGradient>
			<path style="fill:url(#SVGID_00000021094481441255923760000016009634863206193076_);" d="M316.241,180.374
				c-11.268,0-19.403,21.819-24.613,31.796l16.092,11.841l10.599-9.638L316.241,180.374z"/>
			<path style="fill:#E5D9EA;" d="M316.241,180.374c4.884-0.374,5.766-4.787,6.384-10.546s12.685-4.751,12.685-4.751
				s-3.936,9.753,5.231,14.236c9.168,4.483,2.997,25.875-7.494,29.166c-10.49,3.291-19.572,4.114-19.865-2.263
				c-0.293-6.377,0-19.747,0-19.747L316.241,180.374z"/>
			
				<linearGradient id="SVGID_00000154407350996389984640000008236716246189074352_" gradientUnits="userSpaceOnUse" x1="312.7862" y1="182.7526" x2="343.5362" y2="242.3776">
				<stop  offset="0" style="stop-color:#009AE8"/>
				<stop  offset="1" style="stop-color:#2467E9"/>
			</linearGradient>
			<path style="fill:url(#SVGID_00000154407350996389984640000008236716246189074352_);" d="M340.54,179.313
				c-0.48,0.838-0.992,1.672-1.566,2.495c-6.016,8.624-14.903,12.818-19.849,9.367c-2.841-1.982-3.754-6.059-2.885-10.801
				c-9.56,3.714-15.283,12.705-15.283,26.048c0,17.895,5,43.013,5,43.013h52.267l-5.119-35.061l10.885-4.609
				c0,0-0.833-4.786-1.547-7.572C358.366,186.281,351.593,181.146,340.54,179.313z"/>
			
				<ellipse transform="matrix(0.2102 -0.9777 0.9777 0.2102 100.6125 447.8011)" style="fill:#E5D9EA;" cx="327.466" cy="161.628" rx="17.073" ry="11.519"/>
			<path style="fill:#E5D9EA;" d="M360.71,211.155l-18.047,7.705c0,0,2.257,79.789,3.243,83.81c1.219,4.969,2.35-0.789,3.33,1.72
				c0.863,2.21,1.452,3.061,2.342,3.389c1.467,0.541,2.399-1.935,2.399-1.935s2.723,4.056,3.341-0.96c0,0,2.059,3.388,3.134-1.105
				c0,0,2.423,2.717,2.624-3.618C363.277,293.826,364.281,222.515,360.71,211.155z"/>
			
				<line style="fill:none;stroke:#E5D9EA;stroke-width:0.75;stroke-linecap:round;stroke-linejoin:round;stroke-miterlimit:10;" x1="363.808" y1="209.766" x2="338.819" y2="220.434"/>
			
				<line style="fill:none;stroke:#E5D9EA;stroke-width:0.75;stroke-linecap:round;stroke-linejoin:round;stroke-miterlimit:10;" x1="301.631" y1="219.532" x2="301.09" y2="203.013"/>
			
				<linearGradient id="SVGID_00000014629789457567013650000006410291113698756795_" gradientUnits="userSpaceOnUse" x1="347.4607" y1="169.9937" x2="318.5857" y2="141.8687">
				<stop  offset="0" style="stop-color:#2467E9"/>
				<stop  offset="1" style="stop-color:#009AE8"/>
			</linearGradient>
			<path style="fill:url(#SVGID_00000014629789457567013650000006410291113698756795_);" d="M307.562,146.228
				c-2.08,15.791,23.8,9.209,28.562,7.289s11.947-6.415,2.054-12.272C320.518,130.79,308.629,138.124,307.562,146.228z"/>
			
				<linearGradient id="SVGID_00000005989476314574715250000017823935465648164266_" gradientUnits="userSpaceOnUse" x1="353.996" y1="163.2841" x2="325.121" y2="135.1591">
				<stop  offset="0" style="stop-color:#2467E9"/>
				<stop  offset="1" style="stop-color:#009AE8"/>
			</linearGradient>
			<circle style="fill:url(#SVGID_00000005989476314574715250000017823935465648164266_);" cx="340.058" cy="149.708" r="10.973"/>
			
				<linearGradient id="SVGID_00000072977720841375186270000008989415708186911661_" gradientUnits="userSpaceOnUse" x1="346.6848" y1="170.7903" x2="317.8098" y2="142.6653">
				<stop  offset="0" style="stop-color:#2467E9"/>
				<stop  offset="1" style="stop-color:#009AE8"/>
			</linearGradient>
			<circle style="fill:url(#SVGID_00000072977720841375186270000008989415708186911661_);" cx="340.058" cy="164.335" r="8.279"/>
		</g>
		<g>
			<g>
				
					<linearGradient id="SVGID_00000137091113449541903690000007043020495400499608_" gradientUnits="userSpaceOnUse" x1="185.1563" y1="76.0138" x2="104.929" y2="76.0138">
					<stop  offset="0" style="stop-color:#2467E9"/>
					<stop  offset="1" style="stop-color:#009AE8"/>
				</linearGradient>
				<polygon style="fill:url(#SVGID_00000137091113449541903690000007043020495400499608_);" points="110.254,81.532 
					103.036,81.532 96.127,70.495 103.345,70.495 				"/>
				
					<linearGradient id="SVGID_00000090982556179854288380000001917975965037055153_" gradientUnits="userSpaceOnUse" x1="185.1563" y1="76.0138" x2="104.929" y2="76.0138">
					<stop  offset="0" style="stop-color:#2467E9"/>
					<stop  offset="1" style="stop-color:#009AE8"/>
				</linearGradient>
				<polygon style="fill:url(#SVGID_00000090982556179854288380000001917975965037055153_);" points="132.504,81.532 
					125.285,81.532 118.376,70.495 125.595,70.495 				"/>
				
					<linearGradient id="SVGID_00000070080576685001468790000010543515523240940193_" gradientUnits="userSpaceOnUse" x1="185.1563" y1="76.0138" x2="104.929" y2="76.0138">
					<stop  offset="0" style="stop-color:#2467E9"/>
					<stop  offset="1" style="stop-color:#009AE8"/>
				</linearGradient>
				<polygon style="fill:url(#SVGID_00000070080576685001468790000010543515523240940193_);" points="154.753,81.532 
					147.535,81.532 140.626,70.495 147.845,70.495 				"/>
				
					<linearGradient id="SVGID_00000009555596804673447100000010624544426351116458_" gradientUnits="userSpaceOnUse" x1="185.1563" y1="76.0138" x2="104.929" y2="76.0138">
					<stop  offset="0" style="stop-color:#2467E9"/>
					<stop  offset="1" style="stop-color:#009AE8"/>
				</linearGradient>
				<polygon style="fill:url(#SVGID_00000009555596804673447100000010624544426351116458_);" points="177.003,81.532 
					169.784,81.532 162.875,70.495 170.094,70.495 				"/>
			</g>
			<g>
				
					<linearGradient id="SVGID_00000176727575996207320220000015965837168423581322_" gradientUnits="userSpaceOnUse" x1="431.5313" y1="333.0918" x2="384.2813" y2="333.0918">
					<stop  offset="0" style="stop-color:#2467E9"/>
					<stop  offset="1" style="stop-color:#009AE8"/>
				</linearGradient>
				<polygon style="fill:url(#SVGID_00000176727575996207320220000015965837168423581322_);" points="386.048,338.61 378.83,338.61 
					371.921,327.573 379.14,327.573 				"/>
				
					<linearGradient id="SVGID_00000033339213696717672380000001022768397956734134_" gradientUnits="userSpaceOnUse" x1="431.5313" y1="333.0918" x2="384.2813" y2="333.0918">
					<stop  offset="0" style="stop-color:#2467E9"/>
					<stop  offset="1" style="stop-color:#009AE8"/>
				</linearGradient>
				<polygon style="fill:url(#SVGID_00000033339213696717672380000001022768397956734134_);" points="408.298,338.61 
					401.079,338.61 394.171,327.573 401.389,327.573 				"/>
				
					<linearGradient id="SVGID_00000111887100531845635960000017926843666298453136_" gradientUnits="userSpaceOnUse" x1="431.5313" y1="333.0918" x2="384.2813" y2="333.0918">
					<stop  offset="0" style="stop-color:#2467E9"/>
					<stop  offset="1" style="stop-color:#009AE8"/>
				</linearGradient>
				<polygon style="fill:url(#SVGID_00000111887100531845635960000017926843666298453136_);" points="430.547,338.61 
					423.329,338.61 416.42,327.573 423.639,327.573 				"/>
			</g>
			<path style="fill:none;stroke:#E5D9EA;stroke-width:0.75;stroke-linecap:round;stroke-linejoin:round;stroke-miterlimit:10;" d="
				M227.655,199.559c1.764,34.321-15.595,68.313-47.621,86.216c-44.934,25.12-101.723,9.057-126.843-35.876
				s-9.057-101.723,35.876-126.843c31.648-17.692,69.177-14.955,97.379,3.909"/>
			<g>
				
					<linearGradient id="SVGID_00000088102860742504646250000010938388059961535636_" gradientUnits="userSpaceOnUse" x1="421.5123" y1="254.1372" x2="451.2108" y2="283.8356">
					<stop  offset="0" style="stop-color:#009AE8"/>
					<stop  offset="1" style="stop-color:#2467E9"/>
				</linearGradient>
				<circle style="fill:url(#SVGID_00000088102860742504646250000010938388059961535636_);" cx="436.362" cy="268.986" r="21"/>
				<polyline style="fill:none;stroke:#E5D9EA;stroke-width:5;stroke-miterlimit:10;" points="424.878,268.065 433.815,277.002 
					449.845,260.971 				"/>
			</g>
			<polyline style="fill:none;stroke:#E5D9EA;stroke-width:5;stroke-miterlimit:10;" points="29.063,54.746 29.063,29.063 
				54.746,29.063 			"/>
			<polyline style="fill:none;stroke:#E5D9EA;stroke-width:5;stroke-miterlimit:10;" points="470.938,445.254 470.938,470.938 
				445.254,470.938 			"/>
			<polyline style="fill:none;stroke:#E5D9EA;stroke-width:5;stroke-miterlimit:10;" points="445.254,29.063 470.938,29.063 
				470.938,54.746 			"/>
			<polyline style="fill:none;stroke:#E5D9EA;stroke-width:5;stroke-miterlimit:10;" points="54.746,470.938 29.063,470.938 
				29.063,445.254 			"/>
			<g>
				
					<polyline style="fill:none;stroke:#E5D9EA;stroke-width:0.75;stroke-linecap:round;stroke-linejoin:round;stroke-miterlimit:10;" points="
					426.659,189.204 417.569,198.294 408.479,189.204 				"/>
				
					<polyline style="fill:none;stroke:#E5D9EA;stroke-width:0.75;stroke-linecap:round;stroke-linejoin:round;stroke-miterlimit:10;" points="
					426.659,174.726 417.569,183.815 408.479,174.726 				"/>
				
					<polyline style="fill:none;stroke:#E5D9EA;stroke-width:0.75;stroke-linecap:round;stroke-linejoin:round;stroke-miterlimit:10;" points="
					426.659,160.247 417.569,169.336 408.479,160.247 				"/>
				
					<polyline style="fill:none;stroke:#E5D9EA;stroke-width:0.75;stroke-linecap:round;stroke-linejoin:round;stroke-miterlimit:10;" points="
					426.659,145.768 417.569,154.857 408.479,145.768 				"/>
			</g>
			<g>
				
					<polyline style="fill:none;stroke:#E5D9EA;stroke-width:0.75;stroke-linecap:round;stroke-linejoin:round;stroke-miterlimit:10;" points="
					67.223,337.637 76.313,328.547 85.402,337.637 				"/>
				
					<polyline style="fill:none;stroke:#E5D9EA;stroke-width:0.75;stroke-linecap:round;stroke-linejoin:round;stroke-miterlimit:10;" points="
					67.223,352.115 76.313,343.026 85.402,352.115 				"/>
				
					<polyline style="fill:none;stroke:#E5D9EA;stroke-width:0.75;stroke-linecap:round;stroke-linejoin:round;stroke-miterlimit:10;" points="
					67.223,366.594 76.313,357.505 85.402,366.594 				"/>
				
					<polyline style="fill:none;stroke:#E5D9EA;stroke-width:0.75;stroke-linecap:round;stroke-linejoin:round;stroke-miterlimit:10;" points="
					67.223,381.073 76.313,371.984 85.402,381.073 				"/>
				
					<polyline style="fill:none;stroke:#E5D9EA;stroke-width:0.75;stroke-linecap:round;stroke-linejoin:round;stroke-miterlimit:10;" points="
					67.223,395.552 76.313,386.463 85.402,395.552 				"/>
			</g>
		</g>
	</g>
</g>
</svg>
